# xmcd
#
# Track frame offsets:
#	150
#	11247
#	24033
#	40396
#	55314
#	69459
#	78469
#	91677
#	105477
#	121276
#	133234
#	146436
#	162392
#	175967
#	188921
#	201823
#	213985
#	226343
#	236978
#	248913
#	263853
#	276910
#	290127
#	304734
#	317751
#
# Disc length: 4301 seconds
#
# Revision: 0
# Processed by: cddbd v1.4PL0 Copyright (c) Steve Scherf et al.
# Submitted via: dBpowerAMP V4.0
#
DISCID=7010cb19
DTITLE=Lupillo Rivera - Lo nuevo y lo mejor
DYEAR=1900
DGENRE=Banda
TTITLE0=01 - Tomando y tomando
TTITLE1=02 - Despreciado
TTITLE2=03 - Que te ha dado esa mujer
TTITLE3=04 - El barzon
TTITLE4=05 - Tragos amargos
TTITLE5=06 - Copa trs copa
TTITLE6=07 - Tu recuerdo y Yo
TTITLE7=08 - Se les pelo el moreno
TTITLE8=09 - Mi gusto es
TTITLE9=10 - Yo no fui
TTITLE10=11 - Que me entierren con la banda
TTITLE11=12 - Baraja de oro
TTITLE12=13 - Tu y las nubes
TTITLE13=14 - Recordando a Baltazar
TTITLE14=15 - El moreno
TTITLE15=16 - 20 mujeres
TTITLE16=17 - El melon
TTITLE17=18 - De la sierra
TTITLE18=19 - Mi dulceria
TTITLE19=20 - Vengo a verte
TTITLE20=21 - Por una mujer bonita
TTITLE21=22 - El avionazo
TTITLE22=23 - La hielera
TTITLE23=24 - El toro
TTITLE24=25 - Dedicatoria
EXTD=Necro Blue RIP
EXTT0=
EXTT1=
EXTT2=
EXTT3=
EXTT4=
EXTT5=
EXTT6=
EXTT7=
EXTT8=
EXTT9=
EXTT10=
EXTT11=
EXTT12=
EXTT13=
EXTT14=
EXTT15=
EXTT16=
EXTT17=
EXTT18=
EXTT19=
EXTT20=
EXTT21=
EXTT22=
EXTT23=
EXTT24=
PLAYORDER=
